<svg width="69" height="18" viewBox="0 0 69 18" fill="none" xmlns="http://www.w3.org/2000/svg">
<path d="M6.128 14.062C6.1 14.1087 6.10933 14.132 6.156 14.132H10.552C10.6453 14.132 10.692 14.1787 10.692 14.272V14.86C10.692 14.9533 10.6453 15 10.552 15H4.966C4.87267 15 4.826 14.9533 4.826 14.86V14.272C4.826 14.2067 4.84933 14.1507 4.896 14.104C5.21333 13.7307 5.92733 12.8533 7.038 11.472L8.074 10.184C8.95133 9.07333 9.39 8.21 9.39 7.594C9.39 7.09933 9.222 6.70267 8.886 6.404C8.55 6.10533 8.11133 5.956 7.57 5.956C7.038 5.956 6.60867 6.11 6.282 6.418C5.95533 6.71667 5.79667 7.11333 5.806 7.608V8.042C5.806 8.13533 5.75933 8.182 5.666 8.182H4.938C4.84467 8.182 4.798 8.13533 4.798 8.042V7.482C4.81667 6.76333 5.08267 6.18467 5.596 5.746C6.11867 5.30733 6.77667 5.088 7.57 5.088C8.13 5.088 8.62467 5.19533 9.054 5.41C9.48333 5.62467 9.81467 5.92333 10.048 6.306C10.2813 6.67933 10.398 7.104 10.398 7.58C10.398 8.37333 9.95933 9.33 9.082 10.45C8.62467 11.038 7.74267 12.1207 6.436 13.698L6.128 14.062ZM13.6339 14.062C13.6059 14.1087 13.6152 14.132 13.6619 14.132H18.0579C18.1512 14.132 18.1979 14.1787 18.1979 14.272V14.86C18.1979 14.9533 18.1512 15 18.0579 15H12.4719C12.3785 15 12.3319 14.9533 12.3319 14.86V14.272C12.3319 14.2067 12.3552 14.1507 12.4019 14.104C12.7192 13.7307 13.4332 12.8533 14.5439 11.472L15.5799 10.184C16.4572 9.07333 16.8959 8.21 16.8959 7.594C16.8959 7.09933 16.7279 6.70267 16.3919 6.404C16.0559 6.10533 15.6172 5.956 15.0759 5.956C14.5439 5.956 14.1145 6.11 13.7879 6.418C13.4612 6.71667 13.3025 7.11333 13.3119 7.608V8.042C13.3119 8.13533 13.2652 8.182 13.1719 8.182H12.4439C12.3505 8.182 12.3039 8.13533 12.3039 8.042V7.482C12.3225 6.76333 12.5885 6.18467 13.1019 5.746C13.6245 5.30733 14.2825 5.088 15.0759 5.088C15.6359 5.088 16.1305 5.19533 16.5599 5.41C16.9892 5.62467 17.3205 5.92333 17.5539 6.306C17.7872 6.67933 17.9039 7.104 17.9039 7.58C17.9039 8.37333 17.4652 9.33 16.5879 10.45C16.1305 11.038 15.2485 12.1207 13.9419 13.698L13.6339 14.062ZM25.3817 10.716C25.4657 11.1267 25.5077 11.5467 25.5077 11.976C25.5077 12.4333 25.4657 12.8253 25.3817 13.152C25.2231 13.7493 24.9057 14.2253 24.4297 14.58C23.9537 14.9253 23.3797 15.098 22.7077 15.098C22.0451 15.098 21.4804 14.93 21.0137 14.594C20.5471 14.258 20.2297 13.81 20.0617 13.25C19.9964 13.0447 19.9544 12.8393 19.9357 12.634V12.606C19.9357 12.5313 19.9777 12.494 20.0617 12.494H20.8037C20.8971 12.494 20.9484 12.5407 20.9577 12.634C20.9577 12.69 20.9764 12.7833 21.0137 12.914C21.1071 13.3153 21.2984 13.6373 21.5877 13.88C21.8864 14.1133 22.2551 14.23 22.6937 14.23C23.1417 14.23 23.5151 14.104 23.8137 13.852C24.1217 13.6 24.3224 13.2547 24.4157 12.816C24.4717 12.6013 24.4997 12.3213 24.4997 11.976C24.4997 11.6587 24.4764 11.3553 24.4297 11.066C24.3644 10.6367 24.1777 10.31 23.8697 10.086C23.5617 9.862 23.1791 9.75 22.7217 9.75C22.3111 9.75 21.9424 9.84333 21.6157 10.03C21.2891 10.2167 21.0791 10.464 20.9857 10.772C20.9577 10.856 20.9064 10.898 20.8317 10.898H20.0757C19.9824 10.898 19.9357 10.8513 19.9357 10.758V5.34C19.9357 5.24667 19.9824 5.2 20.0757 5.2H24.9757C25.0691 5.2 25.1157 5.24667 25.1157 5.34V5.928C25.1157 6.02133 25.0691 6.068 24.9757 6.068H20.9857C20.9484 6.068 20.9297 6.08667 20.9297 6.124L20.9157 9.512C20.9157 9.53067 20.9204 9.54467 20.9297 9.554C20.9484 9.56333 20.9671 9.55867 20.9857 9.54C21.2191 9.32533 21.4944 9.162 21.8117 9.05C22.1291 8.92867 22.4651 8.868 22.8197 8.868C23.4824 8.868 24.0424 9.03133 24.4997 9.358C24.9571 9.67533 25.2511 10.128 25.3817 10.716ZM32.9399 15.14C32.0439 15.14 31.3299 14.8833 30.7979 14.37C30.2659 13.8567 29.9999 13.1707 29.9999 12.312V7.888C29.9999 7.02933 30.2659 6.348 30.7979 5.844C31.3299 5.33067 32.0439 5.074 32.9399 5.074C33.8452 5.074 34.5685 5.33067 35.1099 5.844C35.6512 6.35733 35.9219 7.03867 35.9219 7.888V12.312C35.9219 13.1707 35.6512 13.8567 35.1099 14.37C34.5685 14.8833 33.8452 15.14 32.9399 15.14ZM32.9399 14.272C33.5372 14.272 34.0179 14.0993 34.3819 13.754C34.7459 13.4087 34.9279 12.9467 34.9279 12.368V7.846C34.9279 7.27667 34.7459 6.81933 34.3819 6.474C34.0272 6.12867 33.5465 5.956 32.9399 5.956C32.3519 5.956 31.8805 6.12867 31.5259 6.474C31.1712 6.81933 30.9939 7.27667 30.9939 7.846V12.368C30.9939 12.9467 31.1712 13.4087 31.5259 13.754C31.8805 14.0993 32.3519 14.272 32.9399 14.272ZM40.8559 15.14C39.9599 15.14 39.2459 14.8833 38.7139 14.37C38.1819 13.8567 37.9159 13.1707 37.9159 12.312V7.888C37.9159 7.02933 38.1819 6.348 38.7139 5.844C39.2459 5.33067 39.9599 5.074 40.8559 5.074C41.7612 5.074 42.4845 5.33067 43.0259 5.844C43.5672 6.35733 43.8379 7.03867 43.8379 7.888V12.312C43.8379 13.1707 43.5672 13.8567 43.0259 14.37C42.4845 14.8833 41.7612 15.14 40.8559 15.14ZM40.8559 14.272C41.4532 14.272 41.9339 14.0993 42.2979 13.754C42.6619 13.4087 42.8439 12.9467 42.8439 12.368V7.846C42.8439 7.27667 42.6619 6.81933 42.2979 6.474C41.9432 6.12867 41.4625 5.956 40.8559 5.956C40.2679 5.956 39.7965 6.12867 39.4419 6.474C39.0872 6.81933 38.9099 7.27667 38.9099 7.846V12.368C38.9099 12.9467 39.0872 13.4087 39.4419 13.754C39.7965 14.0993 40.2679 14.272 40.8559 14.272ZM48.7719 15.14C47.8759 15.14 47.1619 14.8833 46.6299 14.37C46.0979 13.8567 45.8319 13.1707 45.8319 12.312V7.888C45.8319 7.02933 46.0979 6.348 46.6299 5.844C47.1619 5.33067 47.8759 5.074 48.7719 5.074C49.6772 5.074 50.4006 5.33067 50.9419 5.844C51.4832 6.35733 51.7539 7.03867 51.7539 7.888V12.312C51.7539 13.1707 51.4832 13.8567 50.9419 14.37C50.4006 14.8833 49.6772 15.14 48.7719 15.14ZM48.7719 14.272C49.3692 14.272 49.8499 14.0993 50.2139 13.754C50.5779 13.4087 50.7599 12.9467 50.7599 12.368V7.846C50.7599 7.27667 50.5779 6.81933 50.2139 6.474C49.8592 6.12867 49.3786 5.956 48.7719 5.956C48.1839 5.956 47.7126 6.12867 47.3579 6.474C47.0032 6.81933 46.8259 7.27667 46.8259 7.846V12.368C46.8259 12.9467 47.0032 13.4087 47.3579 13.754C47.7126 14.0993 48.1839 14.272 48.7719 14.272Z" fill="#C4C4C4"/>
<mask id="path-2-inside-1_1_970" fill="white">
<path fill-rule="evenodd" clip-rule="evenodd" d="M64.1514 10.7637H65.1009H65.101C65.4847 10.7637 65.8685 10.7637 66.2725 10.7253C67.7674 10.6483 68.9592 9.43655 68.9996 7.9555C69.0198 6.43598 67.8482 5.10881 66.3533 5.03187C65.4039 4.9934 64.4746 4.9934 63.4848 5.01263C63.0404 5.03187 62.5959 5.03187 62.1313 5.03187H61.9293V8.91719V9.45576H61V10.7445H61.9293V11.2639H61.0199V12.5526H61.9293V14.3413H63.3838V12.5526H65.6258V11.2639H63.3838V10.7637H64.1514ZM63.3838 9.45576H63.7271V9.47502H64.01H64.3534H64.4342C65.2827 9.49425 65.8685 9.47502 66.2119 9.45578C67.0199 9.37884 67.6664 8.6864 67.6462 7.87856C67.6462 7.03224 66.9593 6.33981 66.0907 6.30134C65.6077 6.2726 65.1247 6.27607 64.6248 6.27966C64.4557 6.28088 64.2847 6.28211 64.111 6.28211H63.3838V8.91719V9.45576Z"/>
</mask>
<path fill-rule="evenodd" clip-rule="evenodd" d="M64.1514 10.7637H65.1009H65.101C65.4847 10.7637 65.8685 10.7637 66.2725 10.7253C67.7674 10.6483 68.9592 9.43655 68.9996 7.9555C69.0198 6.43598 67.8482 5.10881 66.3533 5.03187C65.4039 4.9934 64.4746 4.9934 63.4848 5.01263C63.0404 5.03187 62.5959 5.03187 62.1313 5.03187H61.9293V8.91719V9.45576H61V10.7445H61.9293V11.2639H61.0199V12.5526H61.9293V14.3413H63.3838V12.5526H65.6258V11.2639H63.3838V10.7637H64.1514ZM63.3838 9.45576H63.7271V9.47502H64.01H64.3534H64.4342C65.2827 9.49425 65.8685 9.47502 66.2119 9.45578C67.0199 9.37884 67.6664 8.6864 67.6462 7.87856C67.6462 7.03224 66.9593 6.33981 66.0907 6.30134C65.6077 6.2726 65.1247 6.27607 64.6248 6.27966C64.4557 6.28088 64.2847 6.28211 64.111 6.28211H63.3838V8.91719V9.45576Z" fill="#C4C4C4"/>
<path d="M66.2725 10.7253L66.2596 10.4753L66.2488 10.4764L66.2725 10.7253ZM68.9996 7.9555L69.2496 7.96232L69.2496 7.95882L68.9996 7.9555ZM66.3533 5.03187L66.3662 4.78218L66.3634 4.78207L66.3533 5.03187ZM63.4848 5.01263L63.4799 4.76261L63.474 4.76287L63.4848 5.01263ZM61.9293 5.03187V4.78187H61.6793V5.03187H61.9293ZM61.9293 9.45576V9.70576H62.1793V9.45576H61.9293ZM61 9.45576V9.20576H60.75V9.45576H61ZM61 10.7445H60.75V10.9945H61V10.7445ZM61.9293 10.7445H62.1793V10.4945H61.9293V10.7445ZM61.9293 11.2639V11.5139H62.1793V11.2639H61.9293ZM61.0199 11.2639V11.0139H60.7699V11.2639H61.0199ZM61.0199 12.5526H60.7699V12.8026H61.0199V12.5526ZM61.9293 12.5526H62.1793V12.3026H61.9293V12.5526ZM61.9293 14.3413H61.6793V14.5913H61.9293V14.3413ZM63.3838 14.3413V14.5913H63.6338V14.3413H63.3838ZM63.3838 12.5526V12.3026H63.1338V12.5526H63.3838ZM65.6258 12.5526V12.8026H65.8758V12.5526H65.6258ZM65.6258 11.2639H65.8758V11.0139H65.6258V11.2639ZM63.3838 11.2639H63.1338V11.5139H63.3838V11.2639ZM63.3838 10.7637V10.5137H63.1338V10.7637H63.3838ZM63.7271 9.45576H63.9771V9.20576H63.7271V9.45576ZM63.3838 9.45576H63.1338V9.70576H63.3838V9.45576ZM63.7271 9.47502H63.4771V9.72502H63.7271V9.47502ZM64.4342 9.47502L64.4399 9.22502H64.4342V9.47502ZM66.2119 9.45578L66.2259 9.70558L66.2356 9.70466L66.2119 9.45578ZM67.6462 7.87856H67.3961L67.3963 7.88481L67.6462 7.87856ZM66.0907 6.30134L66.0758 6.55093L66.0796 6.5511L66.0907 6.30134ZM64.6248 6.27966L64.623 6.02967H64.623L64.6248 6.27966ZM63.3838 6.28211V6.03211H63.1338V6.28211H63.3838ZM65.1009 10.5137H64.1514V11.0137H65.1009V10.5137ZM65.101 10.5137H65.1009V11.0137H65.101V10.5137ZM66.2488 10.4764C65.8584 10.5135 65.4862 10.5137 65.101 10.5137V11.0137C65.4832 11.0137 65.8786 11.0139 66.2962 10.9741L66.2488 10.4764ZM68.7497 7.94868C68.7129 9.29745 67.6261 10.4053 66.2597 10.4756L66.2854 10.9749C67.9086 10.8914 69.2055 9.57565 69.2495 7.96232L68.7497 7.94868ZM66.3405 5.28154C67.6914 5.35107 68.7682 6.55708 68.7497 7.95218L69.2496 7.95882C69.2715 6.31489 68.0049 4.86654 66.3662 4.7822L66.3405 5.28154ZM63.4896 5.26259C64.4765 5.24341 65.4004 5.24346 66.3432 5.28166L66.3634 4.78207C65.4073 4.74334 64.4728 4.74339 63.4799 4.76268L63.4896 5.26259ZM62.1313 5.28187C62.595 5.28187 63.0448 5.28191 63.4956 5.2624L63.474 4.76287C63.0359 4.78183 62.5969 4.78187 62.1313 4.78187V5.28187ZM61.9293 5.28187H62.1313V4.78187H61.9293V5.28187ZM62.1793 8.91719V5.03187H61.6793V8.91719H62.1793ZM62.1793 9.45576V8.91719H61.6793V9.45576H62.1793ZM61 9.70576H61.9293V9.20576H61V9.70576ZM61.25 10.7445V9.45576H60.75V10.7445H61.25ZM61.9293 10.4945H61V10.9945H61.9293V10.4945ZM62.1793 11.2639V10.7445H61.6793V11.2639H62.1793ZM61.0199 11.5139H61.9293V11.0139H61.0199V11.5139ZM61.2699 12.5526V11.2639H60.7699V12.5526H61.2699ZM61.9293 12.3026H61.0199V12.8026H61.9293V12.3026ZM62.1793 14.3413V12.5526H61.6793V14.3413H62.1793ZM63.3838 14.0913H61.9293V14.5913H63.3838V14.0913ZM63.1338 12.5526V14.3413H63.6338V12.5526H63.1338ZM65.6258 12.3026H63.3838V12.8026H65.6258V12.3026ZM65.3758 11.2639V12.5526H65.8758V11.2639H65.3758ZM63.3838 11.5139H65.6258V11.0139H63.3838V11.5139ZM63.1338 10.7637V11.2639H63.6338V10.7637H63.1338ZM64.1514 10.5137H63.3838V11.0137H64.1514V10.5137ZM63.7271 9.20576H63.3838V9.70576H63.7271V9.20576ZM63.9771 9.47502V9.45576H63.4771V9.47502H63.9771ZM64.01 9.22502H63.7271V9.72502H64.01V9.22502ZM64.3534 9.22502H64.01V9.72502H64.3534V9.22502ZM64.4342 9.22502H64.3534V9.72502H64.4342V9.22502ZM66.1979 9.20617C65.8612 9.22503 65.2819 9.24417 64.4399 9.22508L64.4286 9.72495C65.2834 9.74433 65.8758 9.725 66.2259 9.70539L66.1979 9.20617ZM67.3963 7.88481C67.413 8.55392 66.8731 9.14169 66.1882 9.20691L66.2356 9.70466C67.1668 9.61599 67.9198 8.81888 67.8961 7.87231L67.3963 7.88481ZM66.0796 6.5511C66.8221 6.58398 67.3962 7.17336 67.3962 7.87856H67.8962C67.8962 6.89112 67.0966 6.09564 66.1018 6.05159L66.0796 6.5511ZM64.6266 6.52965C65.1279 6.52605 65.6026 6.52273 66.0759 6.5509L66.1056 6.05178C65.6128 6.02246 65.1214 6.02609 64.623 6.02967L64.6266 6.52965ZM64.111 6.53211C64.2857 6.53211 64.4576 6.53087 64.6266 6.52965L64.623 6.02967C64.4538 6.03088 64.2836 6.03211 64.111 6.03211V6.53211ZM63.3838 6.53211H64.111V6.03211H63.3838V6.53211ZM63.6338 8.91719V6.28211H63.1338V8.91719H63.6338ZM63.1338 8.91719V9.45576H63.6338V8.91719H63.1338Z" fill="white" mask="url(#path-2-inside-1_1_970)"/>
<path d="M1.59433 16.7662L60.4054 1.23371" stroke="#C4C4C4" stroke-width="0.5"/>
</svg>
