<svg width="113" height="33" viewBox="0 0 113 33" fill="none" xmlns="http://www.w3.org/2000/svg">
<path d="M4.05 8.181C4.14 8.127 4.275 8.1 4.455 8.1H7.722C7.812 8.1 7.884 8.136 7.938 8.208C8.01 8.262 8.046 8.334 8.046 8.424V26.676C8.046 26.766 8.01 26.847 7.938 26.919C7.884 26.973 7.812 27 7.722 27H4.563C4.473 27 4.392 26.973 4.32 26.919C4.266 26.847 4.239 26.766 4.239 26.676V11.88C4.239 11.844 4.221 11.808 4.185 11.772C4.149 11.736 4.113 11.727 4.077 11.745L1.404 12.474L1.296 12.501C1.134 12.501 1.053 12.402 1.053 12.204L0.972 9.882C0.972 9.702 1.053 9.576 1.215 9.504L4.05 8.181ZM22.2619 11.529C22.5679 12.267 22.7209 13.149 22.7209 14.175V22.302C22.7209 23.274 22.4689 24.138 21.9649 24.894C21.4609 25.632 20.7499 26.208 19.8319 26.622C18.9139 27.018 17.8609 27.216 16.6729 27.216C15.5029 27.216 14.4679 27.018 13.5679 26.622C12.6679 26.208 11.9659 25.641 11.4619 24.921C10.9579 24.183 10.7059 23.337 10.7059 22.383V21.627C10.7059 21.537 10.7329 21.465 10.7869 21.411C10.8589 21.339 10.9399 21.303 11.0299 21.303H14.1889C14.2789 21.303 14.3509 21.339 14.4049 21.411C14.4769 21.465 14.5129 21.537 14.5129 21.627V21.87C14.5129 22.464 14.7109 22.959 15.1069 23.355C15.5209 23.751 16.0429 23.949 16.6729 23.949C17.3389 23.949 17.8789 23.751 18.2929 23.355C18.7069 22.941 18.9139 22.419 18.9139 21.789V19.278C18.9139 19.224 18.8959 19.188 18.8599 19.17C18.8239 19.152 18.7879 19.161 18.7519 19.197C18.0139 19.827 17.0419 20.142 15.8359 20.142C14.7559 20.142 13.7839 19.899 12.9199 19.413C12.0739 18.909 11.4079 18.189 10.9219 17.253C10.4719 16.407 10.2469 15.372 10.2469 14.148C10.2469 13.086 10.4269 12.15 10.7869 11.34C11.2369 10.278 11.9569 9.441 12.9469 8.829C13.9549 8.217 15.1339 7.911 16.4839 7.911C17.8519 7.911 19.0399 8.235 20.0479 8.883C21.0739 9.513 21.8119 10.395 22.2619 11.529ZM16.4839 16.956C17.4199 16.956 18.0949 16.587 18.5089 15.849C18.7789 15.381 18.9139 14.778 18.9139 14.04C18.9139 13.446 18.7969 12.897 18.5629 12.393C18.1669 11.601 17.4829 11.205 16.5109 11.205C15.5749 11.205 14.8909 11.601 14.4589 12.393C14.1889 12.897 14.0539 13.464 14.0539 14.094C14.0539 14.778 14.2069 15.372 14.5129 15.876C14.9629 16.596 15.6199 16.956 16.4839 16.956ZM31.5567 27.297C29.5767 27.297 28.0107 26.748 26.8587 25.65C25.7067 24.534 25.1307 23.022 25.1307 21.114V13.986C25.1307 12.114 25.7067 10.629 26.8587 9.531C28.0107 8.433 29.5767 7.884 31.5567 7.884C33.5367 7.884 35.1027 8.433 36.2547 9.531C37.4247 10.629 38.0097 12.114 38.0097 13.986V21.114C38.0097 23.022 37.4247 24.534 36.2547 25.65C35.1027 26.748 33.5367 27.297 31.5567 27.297ZM31.5567 24.03C32.3667 24.03 33.0057 23.787 33.4737 23.301C33.9597 22.797 34.2027 22.131 34.2027 21.303V13.878C34.2027 13.05 33.9597 12.393 33.4737 11.907C33.0057 11.403 32.3667 11.151 31.5567 11.151C30.7647 11.151 30.1257 11.403 29.6397 11.907C29.1717 12.393 28.9377 13.05 28.9377 13.878V21.303C28.9377 22.131 29.1717 22.797 29.6397 23.301C30.1257 23.787 30.7647 24.03 31.5567 24.03ZM52.3604 27.297C50.3804 27.297 48.8144 26.748 47.6624 25.65C46.5104 24.534 45.9344 23.022 45.9344 21.114V13.986C45.9344 12.114 46.5104 10.629 47.6624 9.531C48.8144 8.433 50.3804 7.884 52.3604 7.884C54.3404 7.884 55.9064 8.433 57.0584 9.531C58.2284 10.629 58.8134 12.114 58.8134 13.986V21.114C58.8134 23.022 58.2284 24.534 57.0584 25.65C55.9064 26.748 54.3404 27.297 52.3604 27.297ZM52.3604 24.03C53.1704 24.03 53.8094 23.787 54.2774 23.301C54.7634 22.797 55.0064 22.131 55.0064 21.303V13.878C55.0064 13.05 54.7634 12.393 54.2774 11.907C53.8094 11.403 53.1704 11.151 52.3604 11.151C51.5684 11.151 50.9294 11.403 50.4434 11.907C49.9754 12.393 49.7414 13.05 49.7414 13.878V21.303C49.7414 22.131 49.9754 22.797 50.4434 23.301C50.9294 23.787 51.5684 24.03 52.3604 24.03ZM67.7588 27.297C65.7788 27.297 64.2128 26.748 63.0608 25.65C61.9088 24.534 61.3328 23.022 61.3328 21.114V13.986C61.3328 12.114 61.9088 10.629 63.0608 9.531C64.2128 8.433 65.7788 7.884 67.7588 7.884C69.7388 7.884 71.3048 8.433 72.4568 9.531C73.6268 10.629 74.2118 12.114 74.2118 13.986V21.114C74.2118 23.022 73.6268 24.534 72.4568 25.65C71.3048 26.748 69.7388 27.297 67.7588 27.297ZM67.7588 24.03C68.5688 24.03 69.2078 23.787 69.6758 23.301C70.1618 22.797 70.4048 22.131 70.4048 21.303V13.878C70.4048 13.05 70.1618 12.393 69.6758 11.907C69.2078 11.403 68.5688 11.151 67.7588 11.151C66.9668 11.151 66.3278 11.403 65.8418 11.907C65.3738 12.393 65.1398 13.05 65.1398 13.878V21.303C65.1398 22.131 65.3738 22.797 65.8418 23.301C66.3278 23.787 66.9668 24.03 67.7588 24.03ZM83.1573 27.297C81.1773 27.297 79.6113 26.748 78.4593 25.65C77.3073 24.534 76.7313 23.022 76.7313 21.114V13.986C76.7313 12.114 77.3073 10.629 78.4593 9.531C79.6113 8.433 81.1773 7.884 83.1573 7.884C85.1373 7.884 86.7033 8.433 87.8553 9.531C89.0253 10.629 89.6103 12.114 89.6103 13.986V21.114C89.6103 23.022 89.0253 24.534 87.8553 25.65C86.7033 26.748 85.1373 27.297 83.1573 27.297ZM83.1573 24.03C83.9673 24.03 84.6063 23.787 85.0743 23.301C85.5603 22.797 85.8033 22.131 85.8033 21.303V13.878C85.8033 13.05 85.5603 12.393 85.0743 11.907C84.6063 11.403 83.9673 11.151 83.1573 11.151C82.3653 11.151 81.7263 11.403 81.2403 11.907C80.7723 12.393 80.5383 13.05 80.5383 13.878V21.303C80.5383 22.131 80.7723 22.797 81.2403 23.301C81.7263 23.787 82.3653 24.03 83.1573 24.03Z" fill="#1C62CD"/>
<path d="M99.6772 17.9179C99.6772 15.1387 99.6772 12.3594 99.6772 9.39488C102.48 9.39488 105.018 9.28371 107.556 9.43194C110.207 9.58016 112.215 12.0259 112.139 14.694C112.063 17.288 110.018 19.5484 107.367 19.6596C105.473 19.7707 103.617 19.6966 101.647 19.6966L99.6772 17.9179ZM101.647 11.0995C101.647 13.4711 101.647 15.6945 101.647 17.992C102.139 18.0291 103.617 17.992 103.995 17.992C105.056 17.992 106.533 18.0291 107.367 17.9179C109.147 17.7326 110.435 16.2133 110.397 14.5087C110.359 12.73 108.995 11.2107 107.139 11.0995C105.359 11.0254 103.541 11.0995 101.647 11.0995Z" fill="#1C62CD"/>
<path d="M105.246 20.1043C104.678 20.1043 104.071 20.1043 103.465 20.1043C102.859 20.1043 102.253 20.1043 101.647 20.1043V19.3631C102.253 19.3631 102.859 19.3631 103.465 19.3631C104.791 19.3631 106.079 19.4002 107.367 19.3261C109.791 19.1779 111.723 17.1768 111.761 14.694C111.837 12.1371 109.905 9.95076 107.518 9.80253C105.776 9.69136 104.034 9.72842 102.215 9.76547C101.496 9.76547 100.776 9.80253 100.056 9.80253V17.955H99.2988V9.0614H99.6776C100.549 9.0614 101.382 9.0614 102.215 9.02434C104.071 8.98728 105.814 8.98729 107.594 9.0614C110.397 9.20963 112.594 11.7665 112.556 14.694C112.48 17.5474 110.246 19.8819 107.443 20.0302C106.685 20.1043 105.965 20.1043 105.246 20.1043ZM105.246 18.3626C104.867 18.3626 104.45 18.3626 103.996 18.3626C103.844 18.3626 103.541 18.3626 103.2 18.3626C102.594 18.3626 101.912 18.3626 101.609 18.3626L101.268 18.3256V10.6919H101.647C102.253 10.6919 102.822 10.6919 103.39 10.6919C104.678 10.6919 105.928 10.6548 107.178 10.7289C109.185 10.8401 110.776 12.5077 110.814 14.5087C110.852 16.4357 109.337 18.1032 107.443 18.2885C106.95 18.3626 106.193 18.3626 105.246 18.3626ZM103.844 17.6215C103.92 17.6215 103.958 17.6215 103.996 17.6215C105.587 17.6585 106.685 17.6215 107.329 17.5844C108.844 17.4362 110.056 16.1022 110.018 14.5458C110.018 12.9153 108.731 11.5813 107.102 11.5071C105.89 11.433 104.678 11.4701 103.39 11.4701C102.935 11.4701 102.481 11.4701 102.026 11.4701V17.6215C102.367 17.6215 102.822 17.6215 103.2 17.6215C103.465 17.6215 103.693 17.6215 103.844 17.6215Z" fill="#1C62CD"/>
<path d="M102.329 17.9921H97.9727V19.7337H102.329V17.9921Z" fill="#1C62CD"/>
<path d="M102.67 20.0672H97.5566V17.5844H102.67V20.0672ZM98.3521 19.326H101.951V18.3255H98.3521V19.326Z" fill="#1C62CD"/>
<path d="M105.851 21.4384H97.9727V23.18H105.851V21.4384Z" fill="#1C62CD"/>
<path d="M106.23 23.5507H97.5938V21.0679H106.23V23.5507ZM98.3513 22.8095H105.472V21.809H98.3513V22.8095Z" fill="#1C62CD"/>
<path d="M101.647 16.9174H99.6772V26.6262H101.647V16.9174Z" fill="#1C62CD"/>
<path d="M102.026 26.9968H99.2988V16.5469H102.026V26.9968ZM100.056 26.2557H101.268V17.288H100.056V26.2557Z" fill="#1C62CD"/>
</svg>
